<svg width="37" height="37" viewBox="0 0 37 37" fill="none" xmlns="http://www.w3.org/2000/svg">
<path d="M14.1402 13.3611C15.1762 12.1072 16.7446 11.3056 18.5 11.3056C20.2554 11.3056 21.8238 12.1072 22.8598 13.3611C23.5419 14.1881 23.9748 15.192 24.108 16.2556C24.2411 17.3193 24.0691 18.3989 23.612 19.3685C23.1548 20.3381 22.4314 21.1577 21.5261 21.7318C20.6208 22.3059 19.5709 22.6107 18.499 22.6107C17.427 22.6107 16.3771 22.3059 15.4718 21.7318C14.5665 21.1577 13.8431 20.3381 13.386 19.3685C12.9288 18.3989 12.7568 17.3193 12.89 16.2556C13.0232 15.192 13.456 14.1881 14.1381 13.3611M26.2063 16.9583C26.2063 15.6592 25.8856 14.4341 25.3183 13.3611H33.9167C34.7344 13.3611 35.5187 13.686 36.0969 14.2642C36.6751 14.8424 37 15.6267 37 16.4444V17.4722C37 20.7344 34.521 24.0747 30.1858 25.2504C29.7403 24.4502 29.089 23.7835 28.2994 23.3195C27.5097 22.8554 26.6104 22.6109 25.6944 22.6111H23.7417C24.5208 21.8902 25.1422 21.0158 25.5667 20.0429C25.9912 19.07 26.2097 18.0198 26.2083 16.9583M25.6944 24.6667C26.0997 24.6656 26.5011 24.7446 26.8757 24.8992C27.2502 25.0537 27.5906 25.2808 27.8771 25.5673C28.1636 25.8539 28.3907 26.1942 28.5453 26.5688C28.6999 26.9434 28.7789 27.3448 28.7778 27.75V28.7778C28.7778 32.8293 24.9544 37 18.5 37C12.0456 37 8.22222 32.8293 8.22222 28.7778V27.75C8.22114 27.3448 8.30015 26.9434 8.45472 26.5688C8.60929 26.1942 8.83636 25.8539 9.12289 25.5673C9.40942 25.2808 9.74976 25.0537 10.1243 24.8992C10.4989 24.7446 10.9003 24.6656 11.3056 24.6667H25.6944ZM0 17.4722C0 20.7344 2.479 24.0747 6.81417 25.2504C7.25967 24.4502 7.91096 23.7835 8.70063 23.3195C9.4903 22.8554 10.3896 22.6109 11.3056 22.6111H13.2583C12.4792 21.8902 11.8578 21.0158 11.4333 20.0429C11.0088 19.07 10.7903 18.0198 10.7917 16.9583C10.7917 15.6592 11.1123 14.4341 11.6817 13.3611H3.08333C2.26558 13.3611 1.48132 13.686 0.903088 14.2642C0.32485 14.8424 0 15.6267 0 16.4444V17.4722ZM15.9306 5.65278C15.9306 4.15357 15.335 2.71576 14.2749 1.65566C13.2148 0.595559 11.777 0 10.2778 0C8.77857 0 7.34076 0.595559 6.28066 1.65566C5.22056 2.71576 4.625 4.15357 4.625 5.65278C4.625 7.15199 5.22056 8.58979 6.28066 9.6499C7.34076 10.71 8.77857 11.3056 10.2778 11.3056C11.777 11.3056 13.2148 10.71 14.2749 9.6499C15.335 8.58979 15.9306 7.15199 15.9306 5.65278ZM32.375 5.65278C32.375 4.15357 31.7794 2.71576 30.7193 1.65566C29.6592 0.595559 28.2214 0 26.7222 0C25.223 0 23.7852 0.595559 22.7251 1.65566C21.665 2.71576 21.0694 4.15357 21.0694 5.65278C21.0694 7.15199 21.665 8.58979 22.7251 9.6499C23.7852 10.71 25.223 11.3056 26.7222 11.3056C28.2214 11.3056 29.6592 10.71 30.7193 9.6499C31.7794 8.58979 32.375 7.15199 32.375 5.65278Z" fill="white"/>
</svg>
