<svg width="37" height="37" viewBox="0 0 37 37" fill="none" xmlns="http://www.w3.org/2000/svg">
<path fill-rule="evenodd" clip-rule="evenodd" d="M0.749878 16.6842C0.750094 14.1428 1.35806 11.6383 2.52305 9.37967C3.68805 7.12103 5.37628 5.17374 7.44692 3.70026C9.51755 2.22678 11.9105 1.26983 14.4262 0.909269C16.9419 0.548704 19.5073 0.794971 21.9085 1.62753C24.3096 2.46008 26.4769 3.85478 28.2294 5.69526C29.9819 7.53574 31.2688 9.76864 31.9829 12.2077C32.6969 14.6467 32.8173 17.2211 32.3341 19.7161C31.8508 22.2111 30.7779 24.5544 29.2049 26.5504L36.0524 33.3979C36.3939 33.7516 36.5829 34.2252 36.5786 34.7168C36.5744 35.2084 36.3772 35.6787 36.0295 36.0263C35.6819 36.374 35.2116 36.5712 34.72 36.5755C34.2284 36.5797 33.7548 36.3907 33.4011 36.0492L26.5536 29.2017C24.2035 31.0542 21.3794 32.2076 18.4044 32.53C15.4293 32.8524 12.4237 32.3307 9.7313 31.0246C7.03894 29.7185 4.76867 27.6808 3.18031 25.1448C1.59195 22.6087 0.749677 19.6766 0.749878 16.6842ZM16.6874 8.24669C16.1901 8.24669 15.7132 8.44424 15.3616 8.79587C15.0099 9.1475 14.8124 9.62441 14.8124 10.1217C14.8124 10.619 15.0099 11.0959 15.3616 11.4475C15.7132 11.7991 16.1901 11.9967 16.6874 11.9967C17.9306 11.9967 19.1229 12.4906 20.0019 13.3696C20.881 14.2487 21.3749 15.441 21.3749 16.6842C21.3749 17.1815 21.5724 17.6584 21.9241 18.01C22.2757 18.3616 22.7526 18.5592 23.2499 18.5592C23.7472 18.5592 24.2241 18.3616 24.5757 18.01C24.9273 17.6584 25.1249 17.1815 25.1249 16.6842C25.1249 14.4464 24.2359 12.3003 22.6536 10.718C21.0713 9.13564 18.9251 8.24669 16.6874 8.24669Z" fill="white"/>
</svg>
