<svg width="41" height="31" viewBox="0 0 41 31" fill="none" xmlns="http://www.w3.org/2000/svg">
<path d="M29.7951 0.306641C32.7534 0.306641 35.5905 1.48181 37.6823 3.57362C39.7741 5.66544 40.9493 8.50254 40.9493 11.4608V18.8969C40.9493 21.8552 39.7741 24.6923 37.6823 26.7841C35.5905 28.8759 32.7534 30.0511 29.7951 30.0511H11.2048C8.24656 30.0511 5.40945 28.8759 3.31764 26.7841C1.22583 24.6923 0.0506592 21.8552 0.0506592 18.8969V11.4608C0.0506592 8.50254 1.22583 5.66544 3.31764 3.57362C5.40945 1.48181 8.24656 0.306641 11.2048 0.306641H29.7951ZM16.7819 9.60179H13.0639V13.3198H9.3458V17.0379H13.062L13.0639 20.756H16.7819L16.7801 17.0379H20.5V13.3198H16.7819V9.60179ZM31.6542 17.0379H27.9361V20.756H31.6542V17.0379ZM27.9361 9.60179H24.218V13.3198H27.9361V9.60179Z" fill="white"/>
</svg>
