<svg width="37" height="37" viewBox="0 0 37 37" fill="none" xmlns="http://www.w3.org/2000/svg">
<path d="M34.6644 14.3408C34.0417 13.69 33.3975 13.0194 33.1546 12.4297C32.93 11.8896 32.9168 10.9943 32.9036 10.1271C32.8788 8.51495 32.8524 6.68808 31.5821 5.41786C30.3119 4.14763 28.485 4.12121 26.8729 4.09643C26.0057 4.08321 25.1104 4.07 24.5703 3.84536C23.9823 3.60254 23.31 2.95835 22.6592 2.33562C21.5195 1.24049 20.2245 0 18.5 0C16.7755 0 15.4822 1.24049 14.3408 2.33562C13.69 2.95835 13.0194 3.60254 12.4297 3.84536C11.8929 4.07 10.9943 4.08321 10.1271 4.09643C8.51495 4.12121 6.68808 4.14763 5.41786 5.41786C4.14763 6.68808 4.12946 8.51495 4.09643 10.1271C4.08321 10.9943 4.07 11.8896 3.84536 12.4297C3.60254 13.0177 2.95835 13.69 2.33562 14.3408C1.24049 15.4805 0 16.7755 0 18.5C0 20.2245 1.24049 21.5178 2.33562 22.6592C2.95835 23.31 3.60254 23.9806 3.84536 24.5703C4.07 25.1104 4.08321 26.0057 4.09643 26.8729C4.12121 28.485 4.14763 30.3119 5.41786 31.5821C6.68808 32.8524 8.51495 32.8788 10.1271 32.9036C10.9943 32.9168 11.8896 32.93 12.4297 33.1546C13.0177 33.3975 13.69 34.0417 14.3408 34.6644C15.4805 35.7595 16.7755 37 18.5 37C20.2245 37 21.5178 35.7595 22.6592 34.6644C23.31 34.0417 23.9806 33.3975 24.5703 33.1546C25.1104 32.93 26.0057 32.9168 26.8729 32.9036C28.485 32.8788 30.3119 32.8524 31.5821 31.5821C32.8524 30.3119 32.8788 28.485 32.9036 26.8729C32.9168 26.0057 32.93 25.1104 33.1546 24.5703C33.3975 23.9823 34.0417 23.31 34.6644 22.6592C35.7595 21.5195 37 20.2245 37 18.5C37 16.7755 35.7595 15.4822 34.6644 14.3408ZM26.0421 15.4706L16.7921 24.7206C16.6693 24.8435 16.5236 24.941 16.3632 25.0075C16.2028 25.074 16.0308 25.1082 15.8571 25.1082C15.6835 25.1082 15.5115 25.074 15.3511 25.0075C15.1907 24.941 15.045 24.8435 14.9222 24.7206L10.9579 20.7563C10.8352 20.6336 10.7378 20.4878 10.6713 20.3274C10.6049 20.167 10.5707 19.9951 10.5707 19.8214C10.5707 19.6478 10.6049 19.4759 10.6713 19.3155C10.7378 19.155 10.8352 19.0093 10.9579 18.8865C11.2059 18.6386 11.5422 18.4993 11.8929 18.4993C12.0665 18.4993 12.2384 18.5335 12.3988 18.5999C12.5592 18.6664 12.705 18.7637 12.8278 18.8865L15.8571 21.9175L24.1722 13.6008C24.295 13.478 24.4408 13.3806 24.6012 13.3142C24.7616 13.2477 24.9335 13.2136 25.1071 13.2136C25.2808 13.2136 25.4527 13.2477 25.6131 13.3142C25.7735 13.3806 25.9193 13.478 26.0421 13.6008C26.1648 13.7236 26.2622 13.8693 26.3287 14.0297C26.3951 14.1902 26.4293 14.3621 26.4293 14.5357C26.4293 14.7093 26.3951 14.8813 26.3287 15.0417C26.2622 15.2021 26.1648 15.3479 26.0421 15.4706Z" fill="white"/>
</svg>
