<svg width="205" height="79" viewBox="0 0 205 79" fill="none" xmlns="http://www.w3.org/2000/svg">
<path fill-rule="evenodd" clip-rule="evenodd" d="M39.1978 70.6052C47.4122 70.6052 55.2903 67.342 61.0988 61.5335C66.9073 55.725 70.1705 47.847 70.1705 39.6325C70.1705 35.5651 69.3693 31.5376 67.8128 27.7798C66.2563 24.022 63.9748 20.6076 61.0988 17.7315C58.2227 14.8554 54.8083 12.574 51.0505 11.0175C47.2927 9.46095 43.2651 8.65982 39.1978 8.65982C35.1304 8.65982 31.1028 9.46095 27.345 11.0175C23.5872 12.574 20.1728 14.8554 17.2967 17.7315C14.4207 20.6076 12.1392 24.022 10.5827 27.7798C9.02619 31.5376 8.22506 35.5651 8.22506 39.6325C8.22506 47.847 11.4882 55.725 17.2968 61.5335C23.1053 67.342 30.9833 70.6052 39.1978 70.6052ZM66.574 67.0088C59.3134 74.2694 49.4658 78.3484 39.1978 78.3484C28.9297 78.3484 19.0821 74.2694 11.8215 67.0088C4.56087 59.7481 0.481885 49.9006 0.481884 39.6325C0.481884 34.5483 1.48329 29.5138 3.42894 24.8166C5.37461 20.1194 8.2264 15.8514 11.8215 12.2563C15.4166 8.66117 19.6846 5.80937 24.3818 3.86371C29.0791 1.91806 34.1135 0.916645 39.1978 0.916645C44.282 0.916644 49.3164 1.91806 54.0137 3.8637C58.7109 5.80937 62.9789 8.66116 66.574 12.2563C70.1691 15.8514 73.0209 20.1194 74.9666 24.8166C76.9122 29.5138 77.9136 34.5483 77.9136 39.6325C77.9136 49.9006 73.8347 59.7481 66.574 67.0088ZM46.9409 55.1189C44.8027 55.1189 43.0693 53.3855 43.0693 51.2473L43.0693 28.0178C43.0693 25.8795 44.8027 24.1462 46.9409 24.1462C49.0791 24.1462 50.8125 25.8795 50.8125 28.0178L50.8125 51.2473C50.8125 53.3855 49.0791 55.1189 46.9409 55.1189ZM31.4546 55.1189C29.3164 55.1189 27.583 53.3855 27.583 51.2473L27.583 28.0178C27.583 25.8795 29.3164 24.1462 31.4546 24.1462C33.5928 24.1462 35.3262 25.8795 35.3262 28.0178L35.3262 51.2473C35.3262 53.3855 33.5928 55.1189 31.4546 55.1189Z" fill="white"/>
<path fill-rule="evenodd" clip-rule="evenodd" d="M39.1978 70.6052C47.4122 70.6052 55.2903 67.342 61.0988 61.5335C66.9073 55.725 70.1705 47.847 70.1705 39.6325C70.1705 37.4943 71.9038 35.7609 74.042 35.7609C76.1803 35.7609 77.9136 37.4943 77.9136 39.6325C77.9136 49.9006 73.8347 59.7481 66.574 67.0088C59.3134 74.2694 49.4658 78.3484 39.1978 78.3484C28.9297 78.3484 19.0821 74.2694 11.8215 67.0088C4.56087 59.7481 0.481878 49.9006 0.481877 39.6325C0.481877 37.4943 2.21525 35.7609 4.35347 35.7609C6.49168 35.7609 8.22506 37.4943 8.22506 39.6325C8.22506 47.847 11.4882 55.725 17.2968 61.5335C23.1053 67.342 30.9833 70.6052 39.1978 70.6052Z" fill="#FEC200"/>
<path d="M188.705 72.409C183.45 72.409 180.823 69.8014 180.823 64.5862V52.7437H178.892V46.8322H180.823V44.8815H186.734V46.8322H196.586V52.7437H186.734V56.7043H196.586V62.6157H186.734V64.5665C186.734 65.8539 187.391 66.4976 188.705 66.4976H196.586V72.409H188.705Z" fill="#FEC200"/>
<path d="M168.842 72.4681C170.077 71.588 170.767 70.3072 170.911 68.6257L170.97 57.4925L166.97 61.4926L162.95 57.4925L162.97 72.4287L157.019 72.4484V46.7928H162.97V49.1771L166.95 53.1575L170.95 49.1771V46.852L176.901 46.8126V67.9952H176.921C176.921 73.1841 174.891 76.6521 170.832 78.3993L168.842 72.4681Z" fill="#FEC200"/>
<path d="M151.147 66.4976L155.049 66.5173L155.029 72.4288L141.453 72.4879V66.5568L145.236 66.4779V52.724L141.433 52.7437V46.8323L145.236 46.8126V44.8618H151.147V46.8126L155.069 46.8323V52.7437L151.147 52.724V66.4976Z" fill="#FEC200"/>
<path d="M127.541 49.4727L133.393 54.8718L133.374 46.8322L139.324 46.8125V72.4484L133.413 74.5765L133.393 65.7094C133.485 63.8965 132.822 62.353 131.403 61.0788L127.521 57.4925L127.502 72.4287L121.59 72.4484V46.714H127.541V49.4727Z" fill="#FEC200"/>
<path d="M108.841 52.724V56.6846H114.043V52.724H108.841ZM108.881 62.5172C108.762 67.404 106.792 70.7013 102.969 72.409L102.949 72.4484V72.409C102.923 72.4221 102.897 72.4353 102.871 72.4484L100.88 66.5173C102.142 65.624 102.831 64.3104 102.949 62.5763V52.7437H100.92V46.8322H102.969V44.8815H108.881V46.8322H119.955V72.3696L114.102 74.3401L114.043 62.5172H108.881Z" fill="#FEC200"/>
<path d="M198.281 20.3886H198.34C197.158 19.7843 195.779 19.7186 194.202 20.1915L192.409 20.7235V32.0735L186.498 32.0932V22.4773L185.335 22.8122L183.66 17.1373L186.498 16.29V6.35876H192.389V14.5559L192.567 14.4968C194.695 13.8663 196.613 13.6889 198.32 13.9648L198.34 6.45729H204.232V17.3343L201.335 19.5215L204.212 21.3935L204.232 32.0932H198.301L198.281 20.3886Z" fill="white"/>
<path d="M171.778 12.3687V16.3294H176.98V12.3687H171.778ZM171.818 22.162C171.699 27.0488 169.729 30.346 165.906 32.0538L165.887 32.0932V32.0538C165.86 32.0669 165.834 32.0801 165.808 32.0932L163.818 26.1621C165.079 25.2688 165.768 23.9551 165.887 22.2211V12.3884H163.857V6.47702H165.906V4.52625H171.818V6.47702H182.892V32.0144L177.039 33.9849L176.98 22.162H171.818Z" fill="white"/>
<path d="M154.064 32.0538C148.809 32.0538 146.182 29.4462 146.182 24.231V12.3884H144.251V6.47702H146.182V4.52625H152.093V6.47702H161.945V12.3884H152.093V16.3491H161.945V22.2605H152.093V24.2113C152.093 25.4987 152.75 26.1424 154.064 26.1424H161.945V32.0538H154.064Z" fill="white"/>
<path d="M130.477 12.3884L130.497 18.2802H132.388C135.068 18.2802 136.408 16.3228 136.408 12.4081L130.477 12.3884ZM136.999 32.1326L132.841 24.0931H130.437L130.398 32.0932L124.565 32.1129V12.3884H122.516V6.47702H124.565V4.52625H130.477V6.47702H142.3V12.3687C142.326 17.1767 141.091 20.5068 138.595 22.359L143.659 32.1326H136.999Z" fill="white"/>
<path d="M108.861 24.1916L102.949 24.1719V12.3884H101.018V6.47702H102.949V4.52625H108.861V6.47702H120.684V14.3983L118.753 16.29L120.684 16.2506V24.1916C120.684 29.4725 118.05 32.1195 112.782 32.1326H102.969L102.949 26.1424H112.762C114.115 26.1424 114.785 25.5184 114.772 24.2704V22.162H108.861V24.1916ZM108.841 12.3687V16.3294H114.772V12.3687H108.841Z" fill="white"/>
</svg>
