<svg width="204" height="79" viewBox="0 0 204 79" fill="none" xmlns="http://www.w3.org/2000/svg">
<path fill-rule="evenodd" clip-rule="evenodd" d="M38.8644 70.6052C47.0789 70.6052 54.9569 67.342 60.7655 61.5335C66.574 55.725 69.8371 47.847 69.8371 39.6325C69.8371 35.5651 69.036 31.5376 67.4795 27.7798C65.923 24.022 63.6415 20.6076 60.7654 17.7315C57.8894 14.8554 54.475 12.574 50.7172 11.0175C46.9594 9.46095 42.9318 8.65982 38.8644 8.65982C34.797 8.65982 30.7695 9.46095 27.0117 11.0175C23.2539 12.574 19.8395 14.8554 16.9634 17.7315C14.0874 20.6076 11.8059 24.022 10.2494 27.7798C8.69287 31.5376 7.89174 35.5651 7.89174 39.6325C7.89174 47.847 11.1549 55.725 16.9634 61.5335C22.772 67.342 30.65 70.6052 38.8644 70.6052ZM66.2407 67.0088C58.9801 74.2694 49.1325 78.3484 38.8644 78.3484C28.5964 78.3484 18.7488 74.2694 11.4882 67.0088C4.22756 59.7481 0.148572 49.9006 0.148571 39.6325C0.148571 34.5483 1.14998 29.5138 3.09563 24.8166C5.04129 20.1194 7.89309 15.8514 11.4882 12.2563C15.0833 8.66117 19.3513 5.80937 24.0485 3.86371C28.7457 1.91806 33.7802 0.916645 38.8644 0.916645C43.9487 0.916644 48.9831 1.91806 53.6804 3.8637C58.3776 5.80937 62.6456 8.66116 66.2407 12.2563C69.8358 15.8514 72.6876 20.1194 74.6332 24.8166C76.5789 29.5138 77.5803 34.5483 77.5803 39.6325C77.5803 49.9006 73.5013 59.7481 66.2407 67.0088ZM46.6076 55.1189C44.4694 55.1189 42.736 53.3855 42.736 51.2473L42.736 28.0178C42.736 25.8795 44.4694 24.1462 46.6076 24.1462C48.7458 24.1462 50.4792 25.8795 50.4792 28.0178L50.4792 51.2473C50.4792 53.3855 48.7458 55.1189 46.6076 55.1189ZM31.1213 55.1189C28.983 55.1189 27.2497 53.3855 27.2497 51.2473L27.2497 28.0178C27.2497 25.8795 28.983 24.1462 31.1213 24.1462C33.2595 24.1462 34.9929 25.8795 34.9929 28.0178L34.9929 51.2473C34.9929 53.3855 33.2595 55.1189 31.1213 55.1189Z" fill="black"/>
<path fill-rule="evenodd" clip-rule="evenodd" d="M38.8644 70.6052C47.0789 70.6052 54.9569 67.342 60.7655 61.5335C66.574 55.725 69.8371 47.847 69.8371 39.6325C69.8371 37.4943 71.5705 35.7609 73.7087 35.7609C75.8469 35.7609 77.5803 37.4943 77.5803 39.6325C77.5803 49.9006 73.5013 59.7481 66.2407 67.0088C58.9801 74.2694 49.1325 78.3484 38.8644 78.3484C28.5964 78.3484 18.7488 74.2694 11.4882 67.0088C4.22756 59.7481 0.148565 49.9006 0.148564 39.6325C0.148564 37.4943 1.88194 35.7609 4.02015 35.7609C6.15837 35.7609 7.89174 37.4943 7.89174 39.6325C7.89174 47.847 11.1549 55.725 16.9634 61.5335C22.772 67.342 30.65 70.6052 38.8644 70.6052Z" fill="#FEC200"/>
<path d="M188.371 72.409C183.117 72.409 180.489 69.8014 180.489 64.5862V52.7437H178.558V46.8322H180.489V44.8815H186.401V46.8322H196.253V52.7437H186.401V56.7043H196.253V62.6157H186.401V64.5665C186.401 65.8539 187.057 66.4976 188.371 66.4976H196.253V72.409H188.371Z" fill="#FEC200"/>
<path d="M168.509 72.4681C169.744 71.588 170.433 70.3072 170.578 68.6257L170.637 57.4925L166.637 61.4926L162.617 57.4925L162.637 72.4287L156.686 72.4484V46.7928H162.637V49.1771L166.617 53.1575L170.617 49.1771V46.852L176.568 46.8126V67.9952H176.588C176.588 73.1841 174.558 76.6521 170.499 78.3993L168.509 72.4681Z" fill="#FEC200"/>
<path d="M150.814 66.4976L154.715 66.5173L154.696 72.4288L141.119 72.4879V66.5568L144.902 66.4779V52.724L141.099 52.7437V46.8323L144.902 46.8126V44.8618H150.814V46.8126L154.735 46.8323V52.7437L150.814 52.724V66.4976Z" fill="#FEC200"/>
<path d="M127.208 49.4727L133.06 54.8718L133.04 46.8322L138.991 46.8125V72.4484L133.08 74.5765L133.06 65.7094C133.152 63.8965 132.488 62.353 131.07 61.0788L127.188 57.4925L127.168 72.4287L121.257 72.4484V46.714H127.208V49.4727Z" fill="#FEC200"/>
<path d="M108.508 52.724V56.6846H113.71V52.724H108.508ZM108.547 62.5172C108.429 67.404 106.459 70.7013 102.636 72.409L102.616 72.4484V72.409C102.59 72.4221 102.564 72.4353 102.537 72.4484L100.547 66.5173C101.808 65.624 102.498 64.3104 102.616 62.5763V52.7437H100.587V46.8322H102.636V44.8815H108.547V46.8322H119.621V72.3696L113.769 74.3401L113.71 62.5172H108.547Z" fill="#FEC200"/>
<path d="M197.948 20.3886H198.007C196.824 19.7843 195.445 19.7186 193.869 20.1915L192.076 20.7235V32.0735L186.164 32.0932V22.4773L185.002 22.8122L183.327 17.1373L186.164 16.29V6.35876H192.056V14.5559L192.233 14.4968C194.361 13.8663 196.279 13.6889 197.987 13.9648L198.007 6.45729H203.898V17.3343L201.002 19.5215L203.879 21.3935L203.898 32.0932H197.967L197.948 20.3886Z" fill="black"/>
<path d="M171.445 12.3687V16.3294H176.647V12.3687H171.445ZM171.484 22.162C171.366 27.0488 169.395 30.346 165.573 32.0538L165.553 32.0932V32.0538C165.527 32.0669 165.501 32.0801 165.474 32.0932L163.484 26.1621C164.745 25.2688 165.435 23.9551 165.553 22.2211V12.3884H163.523V6.47702H165.573V4.52625H171.484V6.47702H182.558V32.0144L176.706 33.9849L176.647 22.162H171.484Z" fill="black"/>
<path d="M153.73 32.0538C148.476 32.0538 145.849 29.4462 145.849 24.231V12.3884H143.917V6.47702H145.849V4.52625H151.76V6.47702H161.612V12.3884H151.76V16.3491H161.612V22.2605H151.76V24.2113C151.76 25.4987 152.417 26.1424 153.73 26.1424H161.612V32.0538H153.73Z" fill="black"/>
<path d="M130.144 12.3884L130.164 18.2802H132.055C134.735 18.2802 136.075 16.3228 136.075 12.4081L130.144 12.3884ZM136.666 32.1326L132.508 24.0931H130.104L130.065 32.0932L124.232 32.1129V12.3884H122.183V6.47702H124.232V4.52625H130.144V6.47702H141.967V12.3687C141.993 17.1767 140.758 20.5068 138.262 22.359L143.326 32.1326H136.666Z" fill="black"/>
<path d="M108.528 24.1916L102.616 24.1719V12.3884H100.685V6.47702H102.616V4.52625H108.528V6.47702H120.351V14.3983L118.42 16.29L120.351 16.2506V24.1916C120.351 29.4725 117.717 32.1195 112.449 32.1326H102.636L102.616 26.1424H112.429C113.782 26.1424 114.452 25.5184 114.439 24.2704V22.162H108.528V24.1916ZM108.508 12.3687V16.3294H114.439V12.3687H108.508Z" fill="black"/>
</svg>
